<svg xmlns="http://www.w3.org/2000/svg" version="1.1" xmlns:xlink="http://www.w3.org/1999/xlink" xmlns:svgjs="http://svgjs.com/svgjs" width="750" height="750"><svg xmlns="http://www.w3.org/2000/svg" viewBox="0 0 750 750" style="enable-background:new 0 0 750 750" xml:space="preserve">
<switch>
<g>
<path fill="#bc1e22" d="M504.7 536.9c-4.9-9.2-5-9.1 4-14.3 9.7-5.6 19.4-11.3 29.7-17.2-15.4-11.3-30.2-22.1-45-33-15.3-11.2-30.7-22.4-46-33.8-2.6-2-4.5-2.2-7.4-.5-14.7 8.7-29.6 17.3-44.5 25.7-2.6 1.5-3.5 3-3.1 6.2 3.8 31.9 7.3 63.9 10.9 95.9.5 4.1.9 8.2 1.3 12.4.3 3 1.2 3.9 4.2 2.1 10.2-6.1 20.6-11.7 30.7-17.9 3.4-2.1 4.9-1.8 6.9 1.7 4.9 8.3 5.1 8.2-3.3 13.4-20.9 13.1-41.8 26.1-62.6 39.3-3.6 2.3-6.3 2.7-10.1.3-22.4-14.2-45-28.1-67.7-41.9-3.7-2.2-4.4-3.8-1.8-7.6 5.1-7.5 4.9-7.6 12.8-3.1 10.1 5.8 20.2 11.5 31 17.7 1.1-9.2 2.1-17.8 3.1-26.3 3-27.3 5.8-54.6 9-81.9.7-6.1-.2-9.8-6.2-13-13.8-7.2-27.2-15.3-40.7-23.2-2.4-1.4-4-1.7-6.5.1-29.8 22-59.8 43.9-89.7 65.9-.4.3-.8.7-1.7 1.6 7.5 4.5 14.9 8.9 22.2 13.2 2.4 1.4 4.9 2.9 7.3 4.3 8.9 5.3 8.8 5.3 3.6 14.3-1.5 2.6-2.7 3.4-5.6 1.8C215.4 526 191.2 513 167 500c-2.3-1.2-3.3-2.5-3.2-5.2.9-27.5 1.6-55 2.3-82.5.1-3.5 1.3-4.9 4.7-4.3h.6c9.7.2 9.7.2 9.7 9.8 0 10.4.1 20.7 0 31.1 0 3.2.8 3.9 3.8 2.6 33.3-14.8 66.7-29.5 100.1-44.1 2.6-1.1 3.1-2.7 3.1-5.1-.1-17.5-.1-35 0-52.6 0-2.7-.9-3.9-3.3-5-33.2-14.6-66.4-29.2-99.6-43.9-4-1.8-4.3-.3-4.2 3.1.1 11.3 0 22.6.2 33.9.1 4-.5 5.9-5.3 6.1-11.4.5-9.5 1-9.8-9.2-.8-25-1.4-50.1-2.3-75.1-.1-3.6.7-5.7 4.1-7.5 23.7-12.7 47.3-25.6 70.9-38.6 3.6-2 5-1.1 6.8 2.2 4.5 8.4 4.7 8.3-3.4 13-9.9 5.7-19.8 11.5-30.4 17.6 11.2 8.3 21.8 16.2 32.5 24.1 19.1 14.1 38.3 28 57.3 42.2 2.9 2.1 4.9 2.2 7.9.4 14.4-8.5 29-16.8 43.6-25 3.3-1.8 4.4-3.8 4-7.6-2.6-22.2-4.9-44.5-7.3-66.8-1.4-12.5-2.8-25-4.1-37.6-.7-6.7-.7-6.8-6.7-3.4-9.6 5.5-19.4 10.9-28.9 16.6-3.3 2-4.9 1.8-6.9-1.7-4.8-8.3-5.1-8.2 3.1-13.3 21.6-13.4 43.2-26.8 64.7-40.3 2.7-1.7 4.6-1.9 7.5-.1 22.9 14.5 45.9 28.8 69 42.9 3.2 1.9 3.6 3.3 1.5 6.5-5.3 8.3-5.1 8.4-13.5 3.5-8.8-5.1-17.6-10.1-26.3-15.3-3.1-1.9-4.2-1.4-4.5 2.2-1.5 14.8-3.1 29.6-4.7 44.3-2.1 19.3-4.1 38.5-6.4 57.8-1.1 9.3-1.4 9.3 6.9 14.1 13.4 7.7 26.7 15.4 40 23.2 2.2 1.3 3.9 2.2 6.5.3 30.2-22.2 60.4-44.3 91-66.6-2.8-3.2-6.6-4.4-9.8-6.4-8.1-4.8-16.2-9.6-24.4-14.1-3-1.7-3.4-3.1-1.8-6.1 4.7-9 4.6-9 13.5-4.2 22.2 11.9 44.4 23.9 66.7 35.6 3.3 1.7 4.5 3.6 4.3 7.4-1.2 26.5-2.2 53.1-3 79.6-.1 4.6-1.4 6.6-6.1 5.6-1.5-.3-3-.5-4.5-.4-3.3.2-4-1.4-4-4.4.1-11.9 0-23.7.1-35.6 0-3.5-.7-4.3-4.1-2.8-33.2 14.7-66.3 29.3-99.6 43.9-2.5 1.1-3.2 2.6-3.1 5.1.1 17.3.1 34.7 0 52 0 2.6.8 3.9 3.3 5 33.1 14.5 66.1 29 99 43.7 4.4 2 4.5 0 4.5-3.4-.1-11.1.2-22.2-.1-33.4-.1-4.5.9-6.3 5.8-6.2 8.4.3 8.5-.1 8.8 8.6 1 25.8 1.9 51.6 2.9 77.4.1 3.1-.8 4.6-3.5 6.1-24.3 12.9-48.5 25.8-72.6 38.9-3 1.6-4.2 1.1-5.6-1.7zm15.8-387.3-13.6 23.5L615.8 236v128.9H643V220.3l-122.5-70.7zM375 96.9l112.4 64.9 13.6-23.5-126-72.7-123.4 71.2 13.6 23.5L375 96.9zm-240.8 139 111.4-64.3-13.6-23.5-125 72.2v144.6h27.1v-129zm0 151.6H107v142.3l126 72.7 13.6-23.5-112.4-64.9V387.5zm481.6 126.6L506 577.5l13.6 23.5L643 529.7V387.5h-27.1v126.6zM375 653.1l-108.8-62.8-13.6 23.5L375 684.4l124.9-72.1-13.6-23.5L375 653.1z"></path>
</g>
</switch></svg><style>@media (prefers-color-scheme: light) { :root { filter: none; } }
</style></svg>